<svg width="18" height="25" viewBox="0 0 18 25" fill="none" xmlns="http://www.w3.org/2000/svg">
<path fill-rule="evenodd" clip-rule="evenodd" d="M9.93359 1.45171C9.93359 1.11001 10.0693 0.782307 10.311 0.540689C10.5526 0.29907 10.8803 0.16333 11.222 0.16333H15.8121C16.1538 0.16333 16.4815 0.29907 16.7231 0.540689C16.9647 0.782307 17.1004 1.11001 17.1004 1.45171V6.04351C17.1004 6.38521 16.9647 6.71292 16.7231 6.95454C16.4815 7.19615 16.1538 7.33189 15.8121 7.33189C15.4704 7.33189 15.1426 7.19615 14.901 6.95454C14.6594 6.71292 14.5237 6.38521 14.5237 6.04351V4.56101L12.1359 6.94881C12.7421 7.85466 13.1155 8.89613 13.2228 9.98085C13.3302 11.0656 13.1682 12.16 12.7512 13.1671C12.3342 14.1742 11.6752 15.0629 10.8324 15.7542C9.98974 16.4456 8.98945 16.9183 7.92028 17.1305V18.5271H9.69137C10.0331 18.5271 10.3608 18.6628 10.6024 18.9044C10.844 19.1461 10.9798 19.4738 10.9798 19.8155C10.9798 20.1572 10.844 20.4849 10.6024 20.7265C10.3608 20.9681 10.0331 21.1039 9.69137 21.1039H7.92028V22.8749C7.92028 23.2166 7.78454 23.5444 7.54292 23.786C7.3013 24.0276 6.97359 24.1633 6.63189 24.1633C6.29019 24.1633 5.96249 24.0276 5.72087 23.786C5.47925 23.5444 5.34351 23.2166 5.34351 22.8749V21.1039H3.56898C3.39979 21.1039 3.23225 21.0705 3.07594 21.0058C2.91962 20.941 2.77759 20.8461 2.65795 20.7265C2.53832 20.6069 2.44341 20.4648 2.37867 20.3085C2.31392 20.1522 2.28059 19.9847 2.28059 19.8155C2.28059 19.6463 2.31392 19.4787 2.37867 19.3224C2.44341 19.1661 2.53832 19.0241 2.65795 18.9044C2.77759 18.7848 2.91962 18.6899 3.07594 18.6252C3.23225 18.5604 3.39979 18.5271 3.56898 18.5271H5.34179V17.1288C4.38016 16.939 3.47262 16.5382 2.68462 15.9553C1.89662 15.3724 1.24781 14.6219 0.784978 13.7578C0.322147 12.8938 0.0568325 11.9379 0.00816932 10.9589C-0.0404939 9.97994 0.128707 9.00237 0.50357 8.09672C0.878432 7.19106 1.44961 6.37988 2.17592 5.72168C2.90222 5.06348 3.76554 4.57468 4.70362 4.29051C5.6417 4.00635 6.63115 3.93391 7.60061 4.07842C8.57007 4.22293 9.49538 4.58079 10.3098 5.12618L12.6976 2.73838H11.2203C10.8786 2.73838 10.5508 2.60264 10.3092 2.36102C10.0676 2.1194 9.93187 1.7917 9.93187 1.45L9.93359 1.45171ZM3.25633 8.66322C3.25633 8.07057 3.73733 7.58957 4.32998 7.58957H8.9338C9.21856 7.58957 9.49164 7.70269 9.69299 7.90404C9.89434 8.10538 10.0075 8.37847 10.0075 8.66322C10.0075 8.94797 9.89434 9.22106 9.69299 9.42241C9.49164 9.62376 9.21856 9.73688 8.9338 9.73688H4.32998C4.04523 9.73688 3.77214 9.62376 3.5708 9.42241C3.36945 9.22106 3.25633 8.94797 3.25633 8.66322ZM4.32998 11.532C4.04523 11.532 3.77214 11.6451 3.5708 11.8465C3.36945 12.0478 3.25633 12.3209 3.25633 12.6057C3.25633 12.8904 3.36945 13.1635 3.5708 13.3649C3.77214 13.5662 4.04523 13.6793 4.32998 13.6793H8.9338C9.21856 13.6793 9.49164 13.5662 9.69299 13.3649C9.89434 13.1635 10.0075 12.8904 10.0075 12.6057C10.0075 12.3209 9.89434 12.0478 9.69299 11.8465C9.49164 11.6451 9.21856 11.532 8.9338 11.532H4.32998Z" fill="#685E55"/>
</svg>
