<svg width="24" height="25" viewBox="0 0 24 25" fill="none" xmlns="http://www.w3.org/2000/svg">
<path id="Vector" d="M1.82092 18.1011V22.3424H6.06221L18.5712 9.82214L14.3299 5.58086L1.82092 18.1011ZM24 19.3565L19.1932 24.1633L13.312 18.2821L15.3139 16.2802L16.4449 17.4112L19.2385 14.6063L20.8445 16.2123L19.1932 17.8184L20.3921 18.9494L21.9981 17.366L24 19.3565ZM5.90386 10.84L0 4.97012L4.80679 0.16333L6.79736 2.16522L4.00377 4.97012L5.21395 6.16898L7.99623 3.36408L9.60226 4.97012L7.99623 6.56484L9.12724 7.69585L5.90386 10.84ZM21.8511 6.50829C22.2922 6.06719 22.2922 5.37728 21.8511 4.91357L19.2045 2.31225C18.7861 1.87115 18.0509 1.87115 17.6098 2.31225L15.5287 4.38199L19.77 8.62327L21.8511 6.50829Z" fill="#E7C300"/>
</svg>
