<svg width="26" height="26" viewBox="0 0 26 26" fill="none" xmlns="http://www.w3.org/2000/svg">
<path id="Vector" d="M13 0C5.82098 0 0 5.82098 0 13C0 20.179 5.82098 26 13 26C20.179 26 26 20.179 26 13C26 5.82098 20.179 0 13 0ZM13 23.7946C7.03973 23.7946 2.20536 18.9603 2.20536 13C2.20536 7.03973 7.03973 2.20536 13 2.20536C18.9603 2.20536 23.7946 7.03973 23.7946 13C23.7946 18.9603 18.9603 23.7946 13 23.7946ZM14.3842 12.3268L13.6471 12.1556V8.25848C14.7498 8.40938 15.4317 9.1 15.5478 9.94732C15.5623 10.0634 15.6609 10.1475 15.777 10.1475H17.0799C17.2163 10.1475 17.3237 10.0286 17.3121 9.89219C17.135 8.08437 15.6464 6.92366 13.6587 6.72344V5.77455C13.6587 5.64687 13.5542 5.54241 13.4266 5.54241H12.6112C12.4835 5.54241 12.379 5.64687 12.379 5.77455V6.73214C10.3246 6.93237 8.71696 8.06696 8.71696 10.1853C8.71696 12.1469 10.1621 13.0929 11.6797 13.4556L12.3964 13.6384V17.7792C11.1138 17.608 10.3942 16.9232 10.2462 16.0004C10.2288 15.8902 10.1301 15.8089 10.017 15.8089H8.67634C8.53996 15.8089 8.43259 15.925 8.4442 16.0614C8.57478 17.6574 9.78482 19.1257 12.3674 19.3143V20.2254C12.3674 20.3531 12.4719 20.4576 12.5996 20.4576H13.4237C13.5513 20.4576 13.6558 20.3531 13.6558 20.2225L13.65 19.3027C15.9221 19.1025 17.5471 17.8866 17.5471 15.7045C17.5442 13.6906 16.2645 12.7911 14.3842 12.3268ZM12.3935 11.8567C12.231 11.8103 12.0946 11.7667 11.9583 11.7116C10.9775 11.3576 10.5219 10.7859 10.5219 10.0489C10.5219 8.99553 11.3199 8.39487 12.3935 8.25848V11.8567ZM13.6471 17.7879V13.9083C13.7371 13.9344 13.8183 13.9547 13.9025 13.9721C15.275 14.39 15.7364 14.9703 15.7364 15.8612C15.7364 16.9958 14.8833 17.6777 13.6471 17.7879Z" fill="#3EB489"/>
</svg>
