<svg width="20" height="20" viewBox="0 0 20 20" fill="none" xmlns="http://www.w3.org/2000/svg">
<path d="M19.25 9.787H6.895M2.534 9.787H0.75M2.534 9.787C2.534 9.20883 2.76368 8.65434 3.17251 8.24551C3.58134 7.83668 4.13583 7.607 4.714 7.607C5.29217 7.607 5.84666 7.83668 6.25549 8.24551C6.66432 8.65434 6.894 9.20883 6.894 9.787C6.894 10.3652 6.66432 10.9197 6.25549 11.3285C5.84666 11.7373 5.29217 11.967 4.714 11.967C4.13583 11.967 3.58134 11.7373 3.17251 11.3285C2.76368 10.9197 2.534 10.3652 2.534 9.787ZM19.25 16.394H13.502M13.502 16.394C13.502 16.9723 13.2718 17.5274 12.8628 17.9363C12.4539 18.3453 11.8993 18.575 11.321 18.575C10.7428 18.575 10.1883 18.3443 9.77951 17.9355C9.37068 17.5267 9.141 16.9722 9.141 16.394M13.502 16.394C13.502 15.8157 13.2718 15.2616 12.8628 14.8527C12.4539 14.4437 11.8993 14.214 11.321 14.214C10.7428 14.214 10.1883 14.4437 9.77951 14.8525C9.37068 15.2613 9.141 15.8158 9.141 16.394M9.141 16.394H0.75M19.25 3.18H16.145M11.784 3.18H0.75M11.784 3.18C11.784 2.60183 12.0137 2.04734 12.4225 1.63851C12.8313 1.22968 13.3858 1 13.964 1C14.2503 1 14.5338 1.05639 14.7983 1.16594C15.0627 1.2755 15.3031 1.43608 15.5055 1.63851C15.7079 1.84094 15.8685 2.08126 15.9781 2.34575C16.0876 2.61024 16.144 2.89372 16.144 3.18C16.144 3.46628 16.0876 3.74976 15.9781 4.01425C15.8685 4.27874 15.7079 4.51906 15.5055 4.72149C15.3031 4.92392 15.0627 5.0845 14.7983 5.19406C14.5338 5.30361 14.2503 5.36 13.964 5.36C13.3858 5.36 12.8313 5.13032 12.4225 4.72149C12.0137 4.31266 11.784 3.75817 11.784 3.18Z" stroke="#141210" stroke-width="1.5" stroke-miterlimit="10" stroke-linecap="round"/>
</svg>
