<svg width="17" height="17" viewBox="0 0 17 17" fill="none" xmlns="http://www.w3.org/2000/svg">
<g id="Group 120">
<path id="Vector" d="M5.99398 0.783947C4.34346 1.35653 2.92005 2.44331 1.93283 3.88466C0.945605 5.32601 0.446612 7.04595 0.509141 8.79185C0.57167 10.5378 1.19243 12.2176 2.28023 13.5846C3.36803 14.9517 4.86554 15.9338 6.5528 16.3869C7.9207 16.7398 9.35385 16.7553 10.7291 16.432C11.9749 16.1522 13.1266 15.5536 14.0716 14.6949C15.0551 13.7739 15.769 12.6023 16.1365 11.3059C16.536 9.89619 16.6071 8.41368 16.3443 6.9722H8.66287V10.1586H13.1114C13.0225 10.6668 12.832 11.1519 12.5513 11.5847C12.2705 12.0176 11.9054 12.3894 11.4776 12.6778C10.9344 13.0371 10.322 13.2789 9.67984 13.3876C9.03577 13.5074 8.37515 13.5074 7.73108 13.3876C7.0783 13.2526 6.46078 12.9832 5.91784 12.5965C5.04561 11.9791 4.39069 11.1019 4.04652 10.0902C3.69654 9.05955 3.69654 7.9422 4.04652 6.91155C4.29151 6.18911 4.69649 5.53133 5.23126 4.98731C5.84324 4.35332 6.61801 3.90014 7.47059 3.67749C8.32317 3.45484 9.2206 3.47133 10.0644 3.72514C10.7236 3.92749 11.3264 4.28104 11.8248 4.75759C12.3264 4.25858 12.8271 3.75827 13.327 3.25667C13.5851 2.98694 13.8664 2.73012 14.1207 2.45394C13.36 1.74603 12.467 1.19519 11.4931 0.832988C9.71946 0.188984 7.7788 0.171677 5.99398 0.783947Z" fill="white"/>
<path id="Vector_2" d="M5.99372 0.783964C7.77839 0.171277 9.71905 0.188129 11.4928 0.831715C12.467 1.19638 13.3595 1.74987 14.1191 2.46041C13.861 2.73659 13.5887 2.9947 13.3254 3.26314C12.8247 3.76302 12.3244 4.26117 11.8245 4.75761C11.3261 4.28105 10.7233 3.92751 10.0642 3.72516C9.22061 3.47046 8.32321 3.45302 7.47041 3.67475C6.6176 3.89649 5.84235 4.34884 5.22971 4.98217C4.69494 5.52619 4.28995 6.18396 4.04497 6.9064L1.36963 4.83504C2.32724 2.93606 3.98528 1.48348 5.99372 0.783964Z" fill="#E33629"/>
<path id="Vector_3" d="M0.660026 6.88708C0.803823 6.17442 1.04255 5.48427 1.36984 4.83508L4.04518 6.9116C3.69519 7.94225 3.69519 9.05961 4.04518 10.0903C3.15383 10.7786 2.26205 11.4703 1.36984 12.1655C0.550523 10.5346 0.300646 8.67645 0.660026 6.88708Z" fill="#F8BD00"/>
<path id="Vector_4" d="M8.66317 6.97095H16.3446C16.6074 8.41242 16.5363 9.89494 16.1368 11.3047C15.7693 12.601 15.0554 13.7727 14.0719 14.6937C13.2085 14.02 12.3413 13.3515 11.4779 12.6778C11.9059 12.3891 12.2713 12.0169 12.552 11.5836C12.8328 11.1503 13.0232 10.6647 13.1117 10.1561H8.66317C8.66188 9.09522 8.66317 8.03308 8.66317 6.97095Z" fill="#587DBD"/>
<path id="Vector_5" d="M1.36865 12.1654C2.26086 11.4771 3.15264 10.7854 4.04399 10.0902C4.38884 11.1023 5.0447 11.9795 5.91789 12.5965C6.46252 12.9814 7.08137 13.2486 7.73501 13.3811C8.37907 13.5009 9.03969 13.5009 9.68376 13.3811C10.3259 13.2724 10.9383 13.0307 11.4815 12.6713C12.3449 13.345 13.2122 14.0135 14.0755 14.6872C13.1307 15.5464 11.9789 16.1454 10.733 16.4256C9.35777 16.7489 7.92462 16.7334 6.55672 16.3804C5.47484 16.0916 4.4643 15.5823 3.58842 14.8847C2.66136 14.1486 1.90418 13.2211 1.36865 12.1654Z" fill="#319F43"/>
</g>
</svg>
