<svg width="26" height="27" viewBox="0 0 26 27" fill="none" xmlns="http://www.w3.org/2000/svg">
<path d="M7.65625 9.83C7.65625 12.1285 8.56934 14.3329 10.1947 15.9583C11.82 17.5836 14.0244 18.4967 16.3229 18.4967C18.6215 18.4967 20.8259 17.5836 22.4512 15.9583C24.0765 14.3329 24.9896 12.1285 24.9896 9.83C24.9896 7.53145 24.0765 5.32705 22.4512 3.70174C20.8259 2.07642 18.6215 1.16333 16.3229 1.16333C14.0244 1.16333 11.82 2.07642 10.1947 3.70174C8.56934 5.32705 7.65625 7.53145 7.65625 9.83Z" stroke="#FF6F61" stroke-width="2" stroke-linecap="round" stroke-linejoin="round"/>
<path d="M1 16.498C1 18.7965 1.91309 21.0009 3.53841 22.6262C5.16372 24.2515 7.36812 25.1646 9.66667 25.1646C11.9652 25.1646 14.1696 24.2515 15.7949 22.6262C17.4202 21.0009 18.3333 18.7965 18.3333 16.498C18.3333 14.1994 17.4202 11.995 15.7949 10.3697C14.1696 8.74439 11.9652 7.8313 9.66667 7.8313C7.36812 7.8313 5.16372 8.74439 3.53841 10.3697C1.91309 11.995 1 14.1994 1 16.498Z" stroke="#FF6F61" stroke-width="2" stroke-linecap="round" stroke-linejoin="round"/>
</svg>
