<svg width="28" height="25" viewBox="0 0 28 25" fill="none" xmlns="http://www.w3.org/2000/svg">
<path d="M8.57143 0.16333C8.11677 0.16333 7.68074 0.343942 7.35925 0.665433C7.03776 0.986924 6.85714 1.42296 6.85714 1.87762C6.85714 2.33227 7.03776 2.76831 7.35925 3.0898C7.68074 3.41129 8.11677 3.5919 8.57143 3.5919H18.8571C19.3118 3.5919 19.7478 3.41129 20.0693 3.0898C20.3908 2.76831 20.5714 2.33227 20.5714 1.87762C20.5714 1.42296 20.3908 0.986924 20.0693 0.665433C19.7478 0.343942 19.3118 0.16333 18.8571 0.16333H8.57143ZM3.42857 7.02047C3.42857 6.56582 3.60918 6.12978 3.93067 5.80829C4.25217 5.4868 4.6882 5.30619 5.14286 5.30619H22.2857C22.7404 5.30619 23.1764 5.4868 23.4979 5.80829C23.8194 6.12978 24 6.56582 24 7.02047C24 7.47513 23.8194 7.91116 23.4979 8.23266C23.1764 8.55415 22.7404 8.73476 22.2857 8.73476H5.14286C4.6882 8.73476 4.25217 8.55415 3.93067 8.23266C3.60918 7.91116 3.42857 7.47513 3.42857 7.02047ZM0 13.8776C0 12.9683 0.361223 12.0962 1.00421 11.4533C1.64719 10.8103 2.51926 10.449 3.42857 10.449H24C24.9093 10.449 25.7814 10.8103 26.4244 11.4533C27.0673 12.0962 27.4286 12.9683 27.4286 13.8776V20.7348C27.4286 21.6441 27.0673 22.5161 26.4244 23.1591C25.7814 23.8021 24.9093 24.1633 24 24.1633H3.42857C2.51926 24.1633 1.64719 23.8021 1.00421 23.1591C0.361223 22.5161 0 21.6441 0 20.7348V13.8776Z" fill="#3EB489"/>
</svg>
