<svg width="46" height="59" viewBox="0 0 46 59" fill="none" xmlns="http://www.w3.org/2000/svg">
<path d="M4.89287 11.5891L6.6718 19.1944L4.89287 26.7665L11.5144 30.8667L15.5664 37.513L23.1434 35.7274L30.7203 37.513L34.7723 30.8667L41.3939 26.7665L39.6149 19.1944L41.3939 11.5891L34.8052 7.48894L30.7203 0.842651L23.1434 2.66129L15.5994 0.875717L11.4815 7.48894L4.89287 11.5891ZM23.1763 32.5531C19.6815 32.5531 16.3298 31.1596 13.8586 28.6791C11.3874 26.1987 9.99905 22.8345 9.99905 19.3266C9.99905 15.8187 11.3874 12.4545 13.8586 9.9741C16.3298 7.49366 19.6815 6.10017 23.1763 6.10017C30.4238 6.10017 36.3206 12.019 36.3206 19.2936C36.3206 26.6342 30.4238 32.5531 23.1763 32.5531ZM23.1104 29.2465C17.6419 29.2465 13.2604 24.8156 13.2604 19.3266C13.2604 13.8707 17.6419 9.40678 23.1104 9.40678C28.579 9.40678 33.0263 13.8707 33.0263 19.3266C33.0263 24.8156 28.579 29.2465 23.1104 29.2465ZM35.7606 32.8837L31.5439 40.2905L24.6917 38.7364L33.0263 58.014L37.6384 50.7394H45.8741L35.7606 32.8837ZM10.3944 33.1152L14.5123 40.5551L21.5292 38.8687L13.2604 58.014L8.64839 50.7394H0.412598L10.3944 33.1152Z" fill="#141210"/>
</svg>
