<svg width="19" height="17" viewBox="0 0 19 17" fill="none" xmlns="http://www.w3.org/2000/svg">
<path d="M13.4332 0C11.8213 0 10.2741 0.750409 9.26431 1.93624C8.2545 0.750409 6.70736 0 5.09537 0C2.24196 0 0 2.24196 0 5.09537C0 8.59728 3.14986 11.4507 7.92098 15.7864L9.26431 17L10.6076 15.7771C15.3787 11.4507 18.5286 8.59728 18.5286 5.09537C18.5286 2.24196 16.2866 0 13.4332 0ZM9.35695 14.406L9.26431 14.4986L9.17166 14.406C4.76185 10.4131 1.85286 7.77275 1.85286 5.09537C1.85286 3.24251 3.24251 1.85286 5.09537 1.85286C6.52207 1.85286 7.91172 2.77003 8.40272 4.03924H10.1351C10.6169 2.77003 12.0065 1.85286 13.4332 1.85286C15.2861 1.85286 16.6757 3.24251 16.6757 5.09537C16.6757 7.77275 13.7668 10.4131 9.35695 14.406Z" fill="#312D2B"/>
</svg>
