<svg width="18" height="18" viewBox="0 0 18 18" fill="none" xmlns="http://www.w3.org/2000/svg">
<g id="Group 229">
<path id="Vector" d="M8.75 0.5C8.94891 0.5 9.13968 0.579018 9.28033 0.71967C9.42098 0.860322 9.5 1.05109 9.5 1.25C9.5 1.44891 9.42098 1.63968 9.28033 1.78033C9.13968 1.92098 8.94891 2 8.75 2C6.82718 2 4.98311 2.76384 3.62348 4.12348C2.26384 5.48311 1.5 7.32718 1.5 9.25C1.5 11.1728 2.26384 13.0169 3.62348 14.3765C4.98311 15.7362 6.82718 16.5 8.75 16.5C8.94891 16.5 9.13968 16.579 9.28033 16.7197C9.42098 16.8603 9.5 17.0511 9.5 17.25C9.5 17.4489 9.42098 17.6397 9.28033 17.7803C9.13968 17.921 8.94891 18 8.75 18C6.42936 18 4.20376 17.0781 2.56282 15.4372C0.921872 13.7962 0 11.5706 0 9.25C0 6.92936 0.921872 4.70376 2.56282 3.06282C4.20376 1.42187 6.42936 0.5 8.75 0.5Z" fill="#D45C50"/>
<path id="Vector_2" d="M13.22 6.77985C13.0875 6.63767 13.0154 6.44963 13.0188 6.25532C13.0223 6.06102 13.101 5.87564 13.2384 5.73823C13.3758 5.60081 13.5612 5.5221 13.7555 5.51867C13.9498 5.51524 14.1378 5.58737 14.28 5.71985L17.28 8.71985C17.4205 8.86047 17.4993 9.0511 17.4993 9.24985C17.4993 9.4486 17.4205 9.63922 17.28 9.77985L14.28 12.7798C14.2113 12.8535 14.1285 12.9126 14.0365 12.9536C13.9445 12.9946 13.8452 13.0167 13.7445 13.0184C13.6438 13.0202 13.5438 13.0017 13.4504 12.964C13.357 12.9262 13.2722 12.8701 13.201 12.7989C13.1297 12.7277 13.0736 12.6428 13.0359 12.5494C12.9982 12.4561 12.9796 12.356 12.9814 12.2553C12.9832 12.1546 13.0052 12.0553 13.0462 11.9633C13.0872 11.8713 13.1463 11.7885 13.22 11.7198L14.94 9.99985H6.75C6.55109 9.99985 6.36032 9.92083 6.21967 9.78018C6.07902 9.63952 6 9.44876 6 9.24985C6 9.05093 6.07902 8.86017 6.21967 8.71952C6.36032 8.57887 6.55109 8.49985 6.75 8.49985H14.94L13.22 6.77985Z" fill="#D45C50"/>
</g>
</svg>
