<svg width="57" height="53" viewBox="0 0 57 53" fill="none" xmlns="http://www.w3.org/2000/svg">
<path d="M48.1069 52.4231C46.2715 52.3934 44.6329 51.8363 43.1911 50.7519C41.7494 49.6674 40.7595 48.2938 40.2215 46.6312L25.6086 46.3946C22.5024 46.3443 19.8614 45.1923 17.6853 42.9385C15.5093 40.6848 14.4465 38.0006 14.4969 34.8861C14.5473 31.7715 15.6965 29.1232 17.9443 26.9411C20.1922 24.7589 22.8692 23.693 25.9753 23.7433L31.6228 23.8347C33.1759 23.8599 34.5148 23.3274 35.6397 22.2373C36.7645 21.1472 37.3387 19.8225 37.362 18.2633C37.3854 16.7042 36.8544 15.3626 35.7692 14.2386C34.684 13.1146 33.3629 12.5381 31.8062 12.5091L17.1932 12.2725C16.5547 13.9143 15.5086 15.2549 14.0551 16.2943C12.6015 17.3338 10.958 17.8378 9.12445 17.8062C6.77132 17.7681 4.78453 16.9099 3.16407 15.2315C1.54362 13.5532 0.752499 11.5343 0.7907 9.1748C0.828901 6.81529 1.68497 4.82304 3.3589 3.19806C5.03283 1.57307 7.04636 0.779626 9.39949 0.817724C11.2349 0.84744 12.8622 1.40529 14.2814 2.49126C15.7005 3.57724 16.7017 4.95005 17.2849 6.60969L31.8979 6.84628C35.004 6.89657 37.6451 8.04859 39.8211 10.3023C41.9971 12.5561 43.0599 15.2402 43.0095 18.3548C42.9591 21.4693 41.81 24.1177 39.5621 26.2998C37.3143 28.4819 34.6373 29.5478 31.5311 29.4975L25.8836 29.4061C24.3306 29.381 22.9925 29.9144 21.8695 31.0064C20.7465 32.0985 20.1715 33.4221 20.1444 34.9775C20.1174 36.5329 20.6492 37.8754 21.74 39.0052C22.8308 40.1349 24.1509 40.7104 25.7003 40.7317L40.3132 40.9683C40.9518 39.3266 41.9978 37.9869 43.4513 36.9493C44.9048 35.9118 46.5484 35.4069 48.382 35.4347C50.7351 35.4728 52.7219 36.331 54.3424 38.0093C55.9628 39.6876 56.7539 41.7065 56.7157 44.066C56.6775 46.4256 55.8215 48.4178 54.1475 50.0428C52.4736 51.6678 50.4601 52.4612 48.1069 52.4231ZM9.21613 12.1434C10.0162 12.1563 10.6917 11.8954 11.2427 11.3605C11.7936 10.8257 12.0747 10.158 12.0857 9.35767C12.0968 8.55729 11.8366 7.88092 11.3051 7.32854C10.7736 6.77616 10.1079 6.49349 9.30781 6.48054C8.50775 6.46759 7.83317 6.72855 7.28409 7.26344C6.73501 7.79832 6.45305 8.46592 6.43821 9.26623C6.42337 10.0665 6.68356 10.7439 7.21877 11.2982C7.75398 11.8525 8.41977 12.1342 9.21613 12.1434Z" fill="#141210"/>
</svg>
