<svg width="57" height="47" viewBox="0 0 57 47" fill="none" xmlns="http://www.w3.org/2000/svg">
<path d="M27.6574 0.828686C25.0362 0.871586 22.5396 1.96033 20.7167 3.85541C18.8937 5.7505 17.8939 8.29667 17.937 10.9338L23.5845 10.8414C23.566 9.71118 23.9945 8.61996 24.7758 7.80779C25.557 6.99561 26.627 6.529 27.7504 6.51062C28.8738 6.49223 29.9585 6.92357 30.7659 7.70975C31.5733 8.49592 32.0373 9.57254 32.0558 10.7027C32.0743 11.8329 31.6458 12.9242 30.8645 13.7363C30.0833 14.5485 29.0133 15.0151 27.8899 15.0335C26.3368 15.0589 25.0871 16.3582 25.1126 17.9207L25.194 22.8924L1.20969 41.6141C0.741425 41.9796 0.399366 42.4841 0.23197 43.0561C0.0645748 43.6282 0.0803292 44.2388 0.277002 44.8014C0.473674 45.364 0.841293 45.8501 1.32779 46.1909C1.81428 46.5316 2.39498 46.7098 2.98764 46.7001L53.8151 45.8682C54.4078 45.8585 54.9823 45.6614 55.4574 45.3049C55.9325 44.9484 56.284 44.4505 56.4622 43.8818C56.6403 43.313 56.6361 42.7023 56.45 42.136C56.264 41.5698 55.9056 41.0767 55.4257 40.7267L30.8415 22.8L30.7997 20.2431C32.8274 19.5985 34.5943 18.3131 35.838 16.5778C37.0816 14.8424 37.7358 12.7497 37.7033 10.6103C37.6601 7.97316 36.5775 5.46107 34.6935 3.62666C32.8095 1.79225 30.2786 0.785785 27.6574 0.828686ZM28.0991 27.8179L45.2509 40.3249L11.3659 40.8795L28.0991 27.8179Z" fill="#141210"/>
</svg>
